<svg width="29" height="30" viewBox="0 0 29 30" fill="none" xmlns="http://www.w3.org/2000/svg">
<path d="M5.22096 3.03516C3.64951 3.03516 2.36328 4.32139 2.36328 5.89283V24.182C2.36328 25.7534 3.64951 27.0396 5.22096 27.0396H23.5101C25.0815 27.0396 26.3678 25.7534 26.3678 24.182V5.89283C26.3678 4.32139 25.0815 3.03516 23.5101 3.03516H5.22096ZM5.22096 4.17823H23.5101C24.4637 4.17823 25.2247 4.93923 25.2247 5.89283V24.182C25.2247 25.1355 24.4637 25.8966 23.5101 25.8966H5.22096C4.26736 25.8966 3.50635 25.1355 3.50635 24.182V5.89283C3.50635 4.93923 4.26736 4.17823 5.22096 4.17823ZM6.36403 9.89358C6.21245 9.89359 6.06709 9.95381 5.95991 10.061C5.85273 10.1682 5.79251 10.3135 5.79249 10.4651V19.6108C5.79251 19.7624 5.85273 19.9077 5.95991 20.0149C6.06709 20.1221 6.21245 20.1823 6.36403 20.1823H10.713H10.7142C10.9499 20.182 11.7767 20.1619 12.6319 19.7604C13.4871 19.3589 14.3655 18.4559 14.3655 16.9965C14.3655 16.0706 14.0623 15.3734 13.6556 14.9146C13.4853 14.7226 13.3263 14.7011 13.1465 14.5831C13.4905 14.1807 13.794 13.6362 13.794 12.7513C13.794 11.3895 13.0481 10.5443 12.2814 10.2006C11.5147 9.85678 10.7263 9.89358 10.5322 9.89358H6.36403ZM17.2232 9.89358C17.1475 9.89251 17.0723 9.9065 17.002 9.93474C16.9317 9.96298 16.8677 10.0049 16.8138 10.0581C16.7599 10.1113 16.717 10.1746 16.6878 10.2445C16.6586 10.3144 16.6435 10.3894 16.6435 10.4651C16.6435 10.5409 16.6586 10.6158 16.6878 10.6857C16.717 10.7556 16.7599 10.819 16.8138 10.8721C16.8677 10.9253 16.9317 10.9672 17.002 10.9955C17.0723 11.0237 17.1475 11.0377 17.2232 11.0366H20.6524C20.7281 11.0377 20.8033 11.0237 20.8736 10.9955C20.9439 10.9672 21.0079 10.9253 21.0618 10.8721C21.1157 10.819 21.1586 10.7556 21.1878 10.6857C21.217 10.6158 21.2321 10.5409 21.2321 10.4651C21.2321 10.3894 21.217 10.3144 21.1878 10.2445C21.1586 10.1746 21.1157 10.1113 21.0618 10.0581C21.0079 10.0049 20.9439 9.96298 20.8736 9.93474C20.8033 9.9065 20.7281 9.89251 20.6524 9.89358H17.2232ZM6.93556 11.0366H10.5322C10.7908 11.0366 11.3484 11.0345 11.8137 11.2432C12.279 11.4518 12.6509 11.7503 12.6509 12.7513C12.6509 13.8234 12.2378 14.0291 11.9923 14.1555C11.8929 14.2069 11.8107 14.2863 11.756 14.3839C11.7013 14.4815 11.6764 14.5931 11.6845 14.7047C11.6926 14.8163 11.7333 14.9231 11.8015 15.0118C11.8697 15.1005 11.9624 15.1672 12.0682 15.2037C12.2843 15.2778 12.573 15.4159 12.8005 15.6726C13.028 15.9292 13.2224 16.3055 13.2224 16.9965C13.2224 18.0426 12.7408 18.4465 12.1464 18.7256C11.5519 19.0046 10.8397 19.0391 10.713 19.0393H6.93556V11.0366ZM18.9378 11.6082C18.4163 11.6082 17.4618 11.7118 16.5735 12.3215C15.6853 12.9312 14.9371 14.0883 14.9371 15.8947C14.9371 17.577 15.6279 18.7205 16.4965 19.363C17.365 20.0055 18.3495 20.1812 19.0349 20.1812C20.4861 20.1812 21.5123 19.6879 22.127 18.9868C22.6948 18.3392 22.8827 17.5752 22.9118 16.9217C22.9273 16.8732 22.9363 16.8229 22.9385 16.7721C22.9387 16.7672 22.9373 16.7614 22.9374 16.7565C22.9375 16.7551 22.9385 16.7534 22.9385 16.752C22.9384 16.733 22.9373 16.714 22.9352 16.6951V16.6928C22.9663 15.6599 22.8863 14.466 22.3346 13.4445C21.7695 12.398 20.6333 11.6082 18.9378 11.6082ZM8.65017 12.1797V13.8943H10.1471C10.3511 13.8943 11.0312 13.7655 11.0312 13.0002C11.0312 12.2343 10.1464 12.1797 10.0109 12.1797H8.65017ZM18.9378 12.7513C20.3143 12.7513 20.9284 13.2474 21.3277 13.987C21.6512 14.586 21.7496 15.3908 21.7687 16.1805H20.0809H17.7947C17.6432 16.1805 17.4978 16.2407 17.3906 16.3479C17.2834 16.4551 17.2232 16.6004 17.2232 16.752C17.2232 16.752 17.2281 16.8963 17.2701 17.0221C17.312 17.148 17.3947 17.3031 17.5335 17.4419C17.8111 17.7195 18.271 17.8951 18.9378 17.8951C19.6046 17.8951 20.0645 17.7195 20.3421 17.4419C20.3813 17.4026 20.3863 17.3643 20.4169 17.3235H21.7051C21.6289 17.6406 21.5067 17.9594 21.2675 18.2322C20.88 18.6741 20.2402 19.0381 19.0349 19.0381C18.5612 19.0381 17.7809 18.8915 17.1763 18.4443C16.5717 17.997 16.0801 17.2833 16.0801 15.8947C16.0801 14.3822 16.6119 13.6817 17.221 13.2636C17.83 12.8456 18.5899 12.7513 18.9378 12.7513ZM18.9869 13.6666C18.6491 13.6666 18.4065 13.7097 18.2133 13.7983C18.0202 13.8863 17.8763 14.0196 17.7311 14.1522C17.6345 14.2848 17.5374 14.4182 17.4889 14.5953C17.4403 14.7279 17.3923 14.8608 17.3929 15.0385H20.4838C20.4353 14.5956 20.2903 14.2416 20.0485 14.0205C19.8073 13.7993 19.4699 13.6666 18.9869 13.6666ZM8.66914 15.6089V17.8839H10.3436C10.4887 17.8839 11.5078 17.8279 11.5078 16.7888C11.5078 15.7486 10.7071 15.6089 10.3436 15.6089H8.66914Z" fill="black"/>
</svg>
