<svg width="29" height="30" viewBox="0 0 29 30" fill="none" xmlns="http://www.w3.org/2000/svg">
<path d="M5.21314 3.03516C3.6417 3.03516 2.35547 4.32139 2.35547 5.89283V24.1819C2.35547 25.7534 3.6417 27.0396 5.21314 27.0396H23.5023C25.0737 27.0396 26.3599 25.7534 26.3599 24.1819V5.89283C26.3599 4.32139 25.0737 3.03516 23.5023 3.03516H5.21314ZM5.21314 4.17823H23.5023C24.4559 4.17823 25.2169 4.93923 25.2169 5.89283V24.1819C25.2169 25.1355 24.4559 25.8966 23.5023 25.8966H5.21314C4.25955 25.8966 3.49854 25.1355 3.49854 24.1819V5.89283C3.49854 4.93923 4.25955 4.17823 5.21314 4.17823ZM15.0286 7.0359C12.6659 7.0359 12.6431 12.9061 12.6431 12.9656C12.6431 13.656 12.6426 14.1086 12.6889 14.6802C12.3637 14.5676 11.9858 14.496 11.5726 14.496C9.14585 14.496 8.07082 16.9674 8.07082 19.0649C8.07082 21.043 9.24555 23.0389 11.8717 23.0389C13.1103 23.0389 14.1577 22.2726 14.9996 21.1289C15.746 21.8605 16.5274 21.8846 17.1127 21.8846C18.9507 21.8846 20.1677 18.5682 20.6055 17.2342C20.745 16.8073 20.4982 16.3522 20.053 16.2173C19.6117 16.0847 19.1331 16.3195 18.9936 16.7464C18.4764 18.3216 17.9321 19.7697 17.0725 20.1812C16.7724 20.3247 16.3112 20.1378 15.858 19.5382C16.9113 17.4081 17.2154 14.8208 17.2154 13.037C17.2154 8.0498 16.1499 7.0359 15.0286 7.0359ZM15.0956 8.7773C15.3619 9.15737 15.5264 10.3143 15.5264 13.0359C15.5259 14.4807 15.4575 16.1912 14.9237 17.6618C14.5716 16.5181 14.3331 14.9757 14.3331 12.9645C14.3331 11.1104 14.7475 9.37226 15.0956 8.7773ZM11.5715 16.1805C12.291 16.1805 12.8429 16.6426 12.8429 16.6437C12.8841 16.6849 12.9289 16.7206 12.9757 16.752C13.2118 17.8796 13.5751 18.9963 13.9592 19.7113C13.3294 20.7412 12.5837 21.3243 11.8572 21.3243C9.95117 21.3243 9.78542 19.8166 9.78542 19.1096C9.78542 18.9981 9.75056 16.1805 11.5715 16.1805Z" fill="black"/>
</svg>
