<svg width="46" height="66" viewBox="0 0 46 66" fill="none" xmlns="http://www.w3.org/2000/svg">
<path d="M12.918 0.833496C5.90989 0.833496 0.167969 6.57542 0.167969 13.5835C0.167969 17.671 2.24606 21.1622 5.26465 23.5002C2.24606 25.8381 0.167969 29.3293 0.167969 33.4168C0.167969 37.5043 2.24606 40.9955 5.26465 43.3335C2.24606 45.6715 0.167969 49.1627 0.167969 53.2502C0.167969 60.2582 5.90989 66.0002 12.918 66.0002C19.926 66.0002 25.668 60.2582 25.668 53.2502V43.3335V26.3335H32.7513C39.7594 26.3335 45.5013 20.5916 45.5013 13.5835C45.5013 6.57542 39.7594 0.833496 32.7513 0.833496H22.8346H12.918ZM12.918 6.50016H20.0013V20.6668H12.918C8.97238 20.6668 5.83464 17.5291 5.83464 13.5835C5.83464 9.6379 8.97238 6.50016 12.918 6.50016ZM25.668 6.50016H32.7513C36.6969 6.50016 39.8346 9.6379 39.8346 13.5835C39.8346 17.5291 36.6969 20.6668 32.7513 20.6668H25.668V6.50016ZM12.918 26.3335H20.0013V40.5002H12.918C8.97238 40.5002 5.83464 37.3624 5.83464 33.4168C5.83464 29.4712 8.97238 26.3335 12.918 26.3335ZM34.168 26.3335C31.9136 26.3335 29.7516 27.229 28.1576 28.8231C26.5635 30.4171 25.668 32.5792 25.668 34.8335C25.668 37.0878 26.5635 39.2498 28.1576 40.8439C29.7516 42.438 31.9136 43.3335 34.168 43.3335C36.4223 43.3335 38.5843 42.438 40.1784 40.8439C41.7724 39.2498 42.668 37.0878 42.668 34.8335C42.668 32.5792 41.7724 30.4171 40.1784 28.8231C38.5843 27.229 36.4223 26.3335 34.168 26.3335ZM12.918 46.1668H20.0013V53.2502C20.0013 57.1958 16.8636 60.3335 12.918 60.3335C8.97238 60.3335 5.83464 57.1958 5.83464 53.2502C5.83464 49.3046 8.97238 46.1668 12.918 46.1668Z" fill="black"/>
</svg>
