<svg width="29" height="30" viewBox="0 0 29 30" fill="none" xmlns="http://www.w3.org/2000/svg">
<path d="M9.23855 2.46387C5.14206 2.46387 1.80859 5.79734 1.80859 9.89382V20.1814C1.80859 24.2779 5.14206 27.6114 9.23855 27.6114H19.5262C23.6227 27.6114 26.9561 24.2779 26.9561 20.1814V9.89382C26.9561 5.79734 23.6227 2.46387 19.5262 2.46387H9.23855ZM9.23855 3.60694H19.5262C23.0048 3.60694 25.8131 6.41518 25.8131 9.89382V20.1814C25.8131 23.6601 23.0048 26.4683 19.5262 26.4683H9.23855C5.75991 26.4683 2.95166 23.6601 2.95166 20.1814V9.89382C2.95166 6.41518 5.75991 3.60694 9.23855 3.60694ZM21.2408 7.03615C20.9376 7.03615 20.6469 7.15658 20.4325 7.37094C20.2181 7.58531 20.0977 7.87606 20.0977 8.17922C20.0977 8.48238 20.2181 8.77312 20.4325 8.98749C20.6469 9.20186 20.9376 9.32229 21.2408 9.32229C21.5439 9.32229 21.8347 9.20186 22.0491 8.98749C22.2634 8.77312 22.3839 8.48238 22.3839 8.17922C22.3839 7.87606 22.2634 7.58531 22.0491 7.37094C21.8347 7.15658 21.5439 7.03615 21.2408 7.03615ZM14.3824 8.75075C10.917 8.75075 8.09548 11.5723 8.09548 15.0376C8.09548 18.503 10.917 21.3245 14.3824 21.3245C17.8477 21.3245 20.6692 18.503 20.6692 15.0376C20.6692 11.5723 17.8477 8.75075 14.3824 8.75075ZM14.3824 9.89382C17.23 9.89382 19.5262 12.19 19.5262 15.0376C19.5262 17.8853 17.23 20.1814 14.3824 20.1814C11.5347 20.1814 9.23855 17.8853 9.23855 15.0376C9.23855 12.19 11.5347 9.89382 14.3824 9.89382Z" fill="black"/>
</svg>
