<svg width="29" height="30" viewBox="0 0 29 30" fill="none" xmlns="http://www.w3.org/2000/svg">
<path d="M5.22682 3.03516C3.65537 3.03516 2.36914 4.32139 2.36914 5.89283V24.182C2.36914 25.7534 3.65537 27.0396 5.22682 27.0396H23.5159C25.0874 27.0396 26.3736 25.7534 26.3736 24.182V5.89283C26.3736 4.32139 25.0874 3.03516 23.5159 3.03516H5.22682ZM5.22682 4.17823H23.5159C24.4695 4.17823 25.2305 4.93923 25.2305 5.89283V24.182C25.2305 25.1355 24.4695 25.8966 23.5159 25.8966H5.22682C4.27322 25.8966 3.51221 25.1355 3.51221 24.182V5.89283C3.51221 4.93923 4.27322 4.17823 5.22682 4.17823ZM8.08449 7.0426C7.45853 7.0426 6.89525 7.2297 6.47816 7.58065C6.06108 7.93159 5.80505 8.45589 5.80505 9.0173C5.80505 10.0845 6.73069 10.9164 7.90812 10.9987L7.91035 10.9998C7.96646 11.0189 8.02522 11.0291 8.08449 11.0299C9.3836 11.0299 10.3639 10.12 10.3639 9.0173C10.3638 9.00724 10.3635 8.99719 10.3628 8.98716C10.3047 7.90111 9.33641 7.0426 8.08449 7.0426ZM8.08449 8.17227C8.8802 8.17227 9.19439 8.52763 9.22868 9.03181C9.22173 9.52118 8.91898 9.90027 8.08449 9.90027C7.29268 9.90027 6.93472 9.49477 6.93472 9.0173C6.93472 8.77856 7.02184 8.59865 7.20486 8.44465C7.38789 8.29064 7.68168 8.17227 8.08449 8.17227ZM6.36989 11.6082C6.21831 11.6082 6.07295 11.6684 5.96577 11.7756C5.85859 11.8828 5.79837 12.0281 5.79835 12.1797V23.0389C5.79837 23.1905 5.85859 23.3358 5.96577 23.443C6.07295 23.5502 6.21831 23.6104 6.36989 23.6104H9.7991C9.95067 23.6104 10.096 23.5502 10.2032 23.443C10.3104 23.3358 10.3706 23.1905 10.3706 23.0389V19.6867V12.1797C10.3706 12.0281 10.3104 11.8828 10.2032 11.7756C10.096 11.6684 9.95067 11.6082 9.7991 11.6082H6.36989ZM11.5137 11.6082C11.3621 11.6082 11.2168 11.6684 11.1096 11.7756C11.0024 11.8828 10.9422 12.0281 10.9422 12.1797V23.0389C10.9422 23.1905 11.0024 23.3358 11.1096 23.443C11.2168 23.5502 11.3621 23.6104 11.5137 23.6104H14.9429C15.0945 23.6104 15.2398 23.5502 15.347 23.443C15.4542 23.3358 15.5144 23.1905 15.5144 23.0389V17.3235C15.5144 16.8493 15.6438 16.3777 15.8717 16.0688C16.0995 15.76 16.3869 15.5747 16.9332 15.5844C17.4966 15.5941 17.7949 15.7871 18.0205 16.09C18.2461 16.393 18.3721 16.8473 18.3721 17.3235V23.0389C18.3721 23.1905 18.4324 23.3358 18.5395 23.443C18.6467 23.5502 18.7921 23.6104 18.9437 23.6104H22.3729C22.5244 23.6104 22.6698 23.5502 22.777 23.443C22.8842 23.3358 22.9444 23.1905 22.9444 23.0389V16.9016C22.9444 15.209 22.443 13.8682 21.5837 12.9611C20.7243 12.054 19.529 11.6082 18.265 11.6082C17.0636 11.6082 16.1493 12.0111 15.5144 12.4219V12.1797C15.5144 12.0281 15.4542 11.8828 15.347 11.7756C15.2398 11.6684 15.0945 11.6082 14.9429 11.6082H11.5137ZM6.94142 12.7513H9.22756V19.6867V22.4673H6.94142V12.7513ZM12.0852 12.7513H14.3714V13.6432C14.3714 13.763 14.4091 13.8798 14.4792 13.977C14.5492 14.0743 14.648 14.1471 14.7617 14.1851C14.8753 14.2231 14.9981 14.2244 15.1125 14.1889C15.227 14.1533 15.3273 14.0827 15.3995 13.987C15.3995 13.987 16.297 12.7513 18.265 12.7513C19.267 12.7513 20.1264 13.0842 20.7543 13.747C21.3822 14.4097 21.8013 15.4308 21.8013 16.9016V22.4673H19.5152V17.3235C19.5152 16.6567 19.3554 15.9673 18.9381 15.4069C18.5207 14.8464 17.8188 14.4562 16.9533 14.4413C16.0834 14.4258 15.3701 14.8242 14.9518 15.3913C14.5335 15.9583 14.3714 16.6546 14.3714 17.3235V22.4673H12.0852V12.7513Z" fill="black"/>
</svg>
